<svg
  xmlns="http://www.w3.org/2000/svg"
  xmlns:xlink="http://www.w3.org/1999/xlink"
  viewBox="0 0 350 330"
  width="350"
  height="330"
>
  <g>
    <g id="airship">
      <animate
        attributeName="opacity"
        begin="2.8s"
        dur="500ms"
        fill="freeze"
        from="1"
        id="airshipOpacityAnimation"
        to="0"
      />
      <g id="airshipMain">
        <g id="airshipBanner">
          <animateTransform
            attributeName="transform"
            dur="3s"
            fill="freeze"
            repeatCount="indefinite"
            type="skewY"
            values="0; 1; 0; -1; 0"
          />
          <path
            d="M175.44,249.28h48.36a13.27,13.27,0,0,0,13-10.65l3.74-18.32H172.36v25.89A3.09,3.09,0,0,0,175.44,249.28Z"
            fill="none"
            stroke="#fff"
            stroke-linecap="round"
            stroke-linejoin="round"
            stroke-width="2"
          />
          <path
            d="M235.79,241.69h-9.22a8.31,8.31,0,0,1-8.28-8.31V220.31"
            fill="none"
            stroke="#fff"
            stroke-linecap="round"
            stroke-miterlimit="10"
            stroke-width="2"
          />
          <g id="airshipBannerWindow">
            <animate
              attributeName="opacity"
              attributeType="CSS"
              begin="secondCloudAnimation.end - 3s"
              dur="2s"
              fill="freeze"
              from="1"
              to="0"
            />
            <path
              d="M204.25,231.88h-2.05a3.45,3.45,0,0,0-3.43,3.45v2.92a3.45,3.45,0,0,0,3.43,3.45h2.05a3.45,3.45,0,0,0,3.43-3.45v-2.92A3.44,3.44,0,0,0,204.25,231.88Z"
              fill="none"
              stroke="#fff"
              stroke-linecap="round"
              stroke-linejoin="round"
              stroke-width="2"
            />
          </g>
          <path
            d="M185.64,231.88h-2.05a3.45,3.45,0,0,0-3.43,3.45v2.92a3.45,3.45,0,0,0,3.43,3.45h2.05a3.45,3.45,0,0,0,3.43-3.45v-2.92A3.45,3.45,0,0,0,185.64,231.88Z"
            fill="none"
            stroke="#fff"
            stroke-linecap="round"
            stroke-linejoin="round"
            stroke-width="2"
          />
        </g>

        <path
          d="M205,227.08c43.38,0,74.86-15.55,74.86-37s-31.48-37-74.86-37c-27.94,0-55.36,13.53-73.46,24.87a14.3,14.3,0,0,0,0,24.21c18.09,11.33,45.52,24.87,73.46,24.87"
          fill="#068e4d"
        />
        <path
          d="M205,227.08c43.38,0,74.86-15.55,74.86-37s-31.48-37-74.86-37c-27.94,0-55.36,13.53-73.46,24.87a14.3,14.3,0,0,0,0,24.21C149.63,213.54,177.06,227.08,205,227.08Z"
          fill="none"
          stroke="#fff"
          stroke-width="2"
        />
        <path
          d="M205,176.09c-28.23,0-56.07,5.76-72.81,10-3.95,1-6,2.66-6.08,4.34A12.93,12.93,0,0,1,132.18,179c16.74-10.5,44.58-24.68,72.81-24.68,44.81,0,73.64,16,73.64,35.75,0,0.12,0,.24,0,0.37-0.37-7.95-29.1-14.37-73.63-14.37"
          fill="#36e69a"
        />
        <path
          d="M132.18,195.12c16.74,4.27,44.58,10,72.81,10,44.14,0,72.75-6.32,73.6-14.18-0.86,19.34-29.45,34.86-73.6,34.86-28.23,0-56.07-14.19-72.81-24.68a12.88,12.88,0,0,1-6-10.18c0.26,1.61,2.26,3.18,6,4.14"
          fill="#068e4d"
        />
        <path
          d="M132.18,186.12c16.74-4.27,44.58-10,72.81-10,44.53,0,73.26,6.43,73.61,14.38,0,0.17,0,.34,0,0.51-0.85,7.86-29.45,14.17-73.6,14.17-28.23,0-56.07-5.76-72.81-10-3.79-1-5.79-2.53-6-4.13l0-.51c0.13-1.69,2.15-3.36,6.1-4.37"
          fill="#25b774"
        >
          <animate
            attributeName="d"
            calcMode="linear"
            dur="3s"
            repeatCount="indefinite"
            values="M132.18,186.12c16.74-4.27,44.58-10,72.81-10,44.53,0,73.26,6.43,73.61,14.38,0,0.17,0,.34,0,0.51-0.85,7.86-29.45,14.17-73.6,14.17-28.23,0-56.07-5.76-72.81-10-3.79-1-5.79-2.53-6-4.13l0-.51c0.13-1.69,2.15-3.36,6.1-4.37;

          M132.013 185.979C148.818 181.718 176.766 176 205.105 176C249.807 176 278.649 182.417 279 190.35C279 190.52 279 190.69 279 190.859C278.147 198.703 249.426 210 205.105 210C176.766 210 148.828 199.252 132.023 195.021C128.219 194.023 126.211 192.496 126 190.899V190.39C126.131 188.704 128.158 187.037 132.124 186.029;

          M132.18,186.12c16.74-4.27,44.58-10,72.81-10,44.53,0,73.26,6.43,73.61,14.38,0,0.17,0,.34,0,0.51-0.85,7.86-29.45,14.17-73.6,14.17-28.23,0-56.07-5.76-72.81-10-3.79-1-5.79-2.53-6-4.13l0-.51c0.13-1.69,2.15-3.36,6.1-4.37;

          M132.013 185.979C148.818 181.718 176.776 172 205.115 172C249.817 172 278.649 182.417 279 190.35C279 190.52 279 190.69 279 190.859C278.147 198.703 249.436 205 205.115 205C176.776 205 148.828 199.252 132.023 195.021C128.219 194.023 126.211 192.496 126 190.899V190.39C126.131 188.704 128.158 187.037 132.124 186.029;

          M132.18,186.12c16.74-4.27,44.58-10,72.81-10,44.53,0,73.26,6.43,73.61,14.38,0,0.17,0,.34,0,0.51-0.85,7.86-29.45,14.17-73.6,14.17-28.23,0-56.07-5.76-72.81-10-3.79-1-5.79-2.53-6-4.13l0-.51c0.13-1.69,2.15-3.36,6.1-4.37"
          />
        </path>
      </g>

      <g id="airshipBlades">
        <g id="airshipBladesFront">
          <animateTransform
            attributeName="transform"
            dur="3s"
            repeatCount="indefinite"
            type="translate"
            values="0 0; 0 1; 0 0; 0 -1; 0 0"
          />
          <g>
            <path
              d="M123.23,173.34h9.16a3.29,3.29,0,0,1,3.29,3.3v5.71a3.29,3.29,0,0,1-3.29,3.3H115.57a1.32,1.32,0,0,1-1.32-1.32v-2a9,9,0,0,1,9-9"
              fill="#068e4d"
            />
            <path
              d="M123.23,173.34h9.16a3.29,3.29,0,0,1,3.29,3.3v5.71a3.29,3.29,0,0,1-3.29,3.3H115.57a1.32,1.32,0,0,1-1.32-1.32v-2A9,9,0,0,1,123.23,173.34Z"
              fill="none"
              stroke="#fff"
              stroke-linecap="round"
              stroke-linejoin="round"
              stroke-width="2"
            />
          </g>
          <g>
            <path
              d="M123.23,207.39h9.16a3.29,3.29,0,0,0,3.29-3.3v-5.71a3.29,3.29,0,0,0-3.29-3.3H115.57a1.32,1.32,0,0,0-1.32,1.32v2a9,9,0,0,0,9,9"
              fill="#068e4d"
            />
            <path
              d="M123.23,207.39h9.16a3.29,3.29,0,0,0,3.29-3.3v-5.71a3.29,3.29,0,0,0-3.29-3.3H115.57a1.32,1.32,0,0,0-1.32,1.32v2A9,9,0,0,0,123.23,207.39Z"
              fill="none"
              stroke="#fff"
              stroke-linecap="round"
              stroke-linejoin="round"
              stroke-width="2"
            />
          </g>
        </g>
        <g id="airshipBladesBack">
          <animateTransform
            attributeName="transform"
            dur="3s"
            repeatCount="indefinite"
            type="translate"
            values="0 0; 0 -4; 0 0; 0 4; 0 0"
          />
          <g>
            <path
              d="M123.23,173.34h9.16a3.29,3.29,0,0,1,3.29,3.3v5.71a3.29,3.29,0,0,1-3.29,3.3H115.57a1.32,1.32,0,0,1-1.32-1.32v-2a9,9,0,0,1,9-9"
              fill="#068e4d"
            />
            <path
              d="M123.23,173.34h9.16a3.29,3.29,0,0,1,3.29,3.3v5.71a3.29,3.29,0,0,1-3.29,3.3H115.57a1.32,1.32,0,0,1-1.32-1.32v-2A9,9,0,0,1,123.23,173.34Z"
              fill="none"
              stroke="#fff"
              stroke-linecap="round"
              stroke-linejoin="round"
              stroke-width="2"
            />
          </g>
          <g>
            <path
              d="M123.23,207.39h9.16a3.29,3.29,0,0,0,3.29-3.3v-5.71a3.29,3.29,0,0,0-3.29-3.3H115.57a1.32,1.32,0,0,0-1.32,1.32v2a9,9,0,0,0,9,9"
              fill="#068e4d"
            />
            <path
              d="M123.23,207.39h9.16a3.29,3.29,0,0,0,3.29-3.3v-5.71a3.29,3.29,0,0,0-3.29-3.3H115.57a1.32,1.32,0,0,0-1.32,1.32v2A9,9,0,0,0,123.23,207.39Z"
              fill="none"
              stroke="#fff"
              stroke-linecap="round"
              stroke-linejoin="round"
              stroke-width="2"
            />
          </g>
        </g>
      </g>

      <!-- Airship Clouds -->

      <g id="airshipCloud" opacity="0">
        <animate
          attributeName="opacity"
          dur="2.5s"
          fill="freeze"
          keyTimes="0; 0.2; 0.8; 1"
          values="0; 1; 1; 0"
        />
        <line
          x1="68.95"
          y1="107.8"
          x2="131.86"
          y2="107.8"
          fill="none"
          stroke="#fff"
          stroke-linecap="round"
          stroke-miterlimit="10"
          stroke-width="2"
        >
          <animateTransform
            attributeName="transform"
            dur="2.5s"
            fill="freeze"
            from="320"
            to="0"
            type="translate"
          />
        </line>
        <path
          d="M41.77,97.54H77.06a12.4,12.4,0,1,1,24.8,0h17.93"
          fill="none"
          stroke="#fff"
          stroke-linecap="round"
          stroke-miterlimit="10"
          stroke-width="2"
        >
          <animateTransform
            attributeName="transform"
            dur="2.5s"
            fill="freeze"
            from="320"
            to="-10"
            type="translate"
          />
        </path>
      </g>

      <g id="airshipSecondCloud" opacity="0">
        <animate
          attributeName="opacity"
          begin="1s"
          dur="4s"
          fill="freeze"
          keyTimes="0; 0.2; 0.8; 1"
          values="0; 1; 1; 0"
        />
        <animateTransform
          attributeName="transform"
          begin="1s"
          dur="4s"
          fill="freeze"
          from="200"
          id="secondCloudAnimation"
          to="-280"
          type="translate"
        />
        <line
          x1="258.96"
          y1="93.19"
          x2="298.74"
          y2="93.19"
          fill="none"
          stroke="#fff"
          stroke-linecap="round"
          stroke-miterlimit="10"
          stroke-width="2"
        />
        <path
          d="M278.75,82.91H251.39a12.4,12.4,0,1,0-24.8,0H208.65"
          fill="none"
          stroke="#fff"
          stroke-linecap="round"
          stroke-miterlimit="10"
          stroke-width="2"
        />
        <line
          x1="287.01"
          y1="82.91"
          x2="309.21"
          y2="82.91"
          fill="none"
          stroke="#fff"
          stroke-linecap="round"
          stroke-miterlimit="10"
          stroke-width="2"
        />
      </g>

      <!-- Airship fumes -->

      <g id="airshipFumes">
        <line
          x1="106.25"
          y1="179.49"
          x2="84.05"
          y2="179.49"
          fill="none"
          stroke="#fff"
          stroke-linecap="round"
          stroke-miterlimit="10"
          stroke-width="2"
        >
          <animate
            attributeName="x2"
            attributeType="XML"
            dur="200ms"
            keyTimes="0; 0.5; 1"
            repeatCount="indefinite"
            values="84.05; 74.05; 84.05"
          />
        </line>
        <line
          x1="106.25"
          y1="201.23"
          x2="84.05"
          y2="201.23"
          fill="none"
          stroke="#fff"
          stroke-linecap="round"
          stroke-miterlimit="10"
          stroke-width="2"
        >
          <animate
            attributeName="x2"
            attributeType="XML"
            dur="200ms"
            keyTimes="0; 0.5; 1"
            repeatCount="indefinite"
            values="84.05; 74.05; 84.05"
          />
        </line>
        <line
          x1="106.25"
          y1="190.98"
          x2="68.77"
          y2="190.98"
          fill="none"
          stroke="#fff"
          stroke-linecap="round"
          stroke-miterlimit="10"
          stroke-width="2"
        >
          <animate
            attributeName="x2"
            attributeType="XML"
            dur="200ms"
            keyTimes="0; 1"
            repeatCount="indefinite"
            values="74.05; 68.77"
          />
        </line>
      </g>
    </g>

    <g id="finalFirstPrize">
      <animateTransform
        attributeName="transform"
        begin="firstPrizeShowAnimation.end + 2.5s"
        dur="600ms"
        fill="freeze"
        from="0"
        id="firstPrizeMoveAnimation"
        to="-300"
        type="translate"
      />

      <!-- Layout -->

      <g id="layout">
        <path
          d="M289.94,327.88H244.88L212.8,296.58a1.89,1.89,0,0,0-2.44,0l-10.2,10.23a1.72,1.72,0,0,1-2.25,0l-19-20.17a2.4,2.4,0,0,0-3.1,0l-26.42,25.64a1.71,1.71,0,0,1-2.25,0l-2.63-2.92a1.71,1.71,0,0,0-2.31,0L124.63,329H80.78"
          fill="none"
          stroke="#fff"
          stroke-linecap="round"
          stroke-miterlimit="10"
          stroke-width="2"
        >
          <animate
            attributeName="d"
            begin="airshipOpacityAnimation.end - 0.5s"
            dur="500ms"
            fill="freeze"
            from="M 289.94 327.88 L 244.88 327.88 L 212.8 296.58 C 212.459 296.292 212.027 296.134 211.58 296.134 C 211.133 296.134 210.701 296.292 210.36 296.58 L 200.16 306.81 C 199.848 307.08 199.448 307.229 199.035 307.229 C 198.622 307.229 198.223 307.08 197.91 306.81 C 191.577 300.087 185.243 293.363 178.91 286.64 C 178.477 286.273 177.928 286.072 177.36 286.072 C 176.792 286.072 176.243 286.273 175.81 286.64 C 167.003 295.187 158.197 303.733 149.39 312.28 C 149.078 312.552 148.679 312.702 148.265 312.702 C 147.851 312.702 147.452 312.552 147.14 312.28 C 146.263 311.307 145.387 310.333 144.51 309.36 C 144.195 309.071 143.783 308.911 143.355 308.911 C 142.927 308.911 142.515 309.071 142.2 309.36 C 136.343 315.907 130.487 322.453 124.63 329 L 80.78 329"
            to="M 289.94 328 L 271.982 328 L 254.024 328 C 248.038 328 242.052 328 236.066 328 C 230.08 328 224.094 328 218.108 328 L 200.15 328 C 199.29 328 198.59 328 197.9 328 C 191.567 328 185.233 328 178.9 328 C 178.525 328 178.198 328 177.905 328 C 177.612 328 177.353 328 177.114 328 C 176.874 328 176.655 328 176.44 328 C 176.226 328 176.018 328 175.8 328 C 165.033 328 154.267 328 143.5 328 C 143.282 328 143.085 328 142.904 328 C 142.722 328 142.557 328 142.403 328 C 142.249 328 142.106 328 141.97 328 C 141.834 328 141.704 328 141.575 328 C 141.447 328 141.32 328 141.19 328 L 80.78 328"
          />
        </path>
      </g>

      <!-- Airship Banner Window -->

      <g id="airshipBannerWindow" opacity="0">
        <animate
          attributeName="opacity"
          begin="airshipOpacityAnimation.end - 0.5s"
          dur="500ms"
          fill="freeze"
          from="0"
          id="airshipBannerWindowShowAnimation"
          to="1"
        />
        <path
          d="M204.25,231.88h-2.05a3.45,3.45,0,0,0-3.43,3.45v2.92a3.45,3.45,0,0,0,3.43,3.45h2.05a3.45,3.45,0,0,0,3.43-3.45v-2.92A3.44,3.44,0,0,0,204.25,231.88Z"
          fill="none"
          stroke="#fff"
          stroke-linecap="round"
          stroke-linejoin="round"
          stroke-width="2"
        >
          <animate
            attributeName="d"
            begin="airshipOpacityAnimation.end - 0.5s"
            dur="500ms"
            fill="freeze"
            values="M204.25,231.88h-2.05a3.45,3.45,0,0,0-3.43,3.45v2.92a3.45,3.45,0,0,0,3.43,3.45h2.05a3.45,3.45,0,0,0,3.43-3.45v-2.92A3.44,3.44,0,0,0,204.25,231.88Z;
        
            M275,225.43H257.87a17.6,17.6,0,0,1-17.52-17.58V170a17.6,17.6,0,0,1,17.52-17.58H275A17.6,17.6,0,0,1,292.51,170v37.83A17.61,17.61,0,0,1,275,225.43Z"
          />
        </path>
      </g>

      <!-- First prize -->

      <g id="firstPrize" opacity="0">
        <animate
          attributeName="opacity"
          begin="airshipBannerWindowShowAnimation.end - 0.05s"
          dur="500ms"
          fill="freeze"
          from="0"
          id="firstPrizeShowAnimation"
          to="1"
        />
        <g id="skis" opacity="0">
          <animate
            attributeName="opacity"
            begin="chairShowAnimation.end - 0.1s"
            dur="300ms"
            fill="freeze"
            from="0"
            to="1"
          />
          <animateTransform
            attributeName="transform"
            begin="chairShowAnimation.end - 0.1s"
            dur="300ms"
            fill="freeze"
            from="-50"
            to="0"
            type="translate"
          />
          <path
            d="M91.14,327.79a2.2,2.2,0,0,1-2-2.36l13.66-193.17c1.1-15.49-4.8-21.92-8.75-24.47a1.35,1.35,0,0,1,.53-2.45C103,104,122.18,104,120,134.19L106.43,326.67a2.2,2.2,0,0,1-2.35,2Z"
            fill="#fff"
          />
          <path
            d="M124.5,328.17a2.2,2.2,0,0,1-2.17-2.23l2.24-193.63c0.19-15.53-6.07-21.61-10.16-23.91a1.35,1.35,0,0,1,.39-2.47c8.36-1.9,27.49-3,27.15,27.28l-2.25,192.93a2.2,2.2,0,0,1-2.22,2.18Z"
            fill="#fff"
          />
        </g>
        <g>
          <animateTransform
            attributeName="transform"
            begin="airshipBannerWindowShowAnimation.end - 0.05s"
            dur="500ms"
            fill="freeze"
            from="-200"
            id="chairShowAnimation"
            to="0"
            type="translate"
          />
          <g>
            <path
              d="M257.5,259.82H196.76V245.63h55.09a9.92,9.92,0,0,1,9.9,9.93,4.26,4.26,0,0,1-4.25,4.25"
              fill="#a67ee5"
            />
            <path
              d="M257.5,259.82H196.76V245.63h55.09a9.92,9.92,0,0,1,9.9,9.93A4.26,4.26,0,0,1,257.5,259.82Z"
              fill="none"
              stroke="#fff"
              stroke-miterlimit="10"
              stroke-width="2"
            />
            <polygon
              points="185.47 328.31 171.5 328.31 165.19 286.72 179.16 286.72 185.47 328.31"
              fill="#a67ee5"
            />
            <polygon
              points="185.47 328.31 171.5 328.31 165.19 286.72 179.16 286.72 185.47 328.31"
              fill="none"
              stroke="#fff"
              stroke-miterlimit="10"
              stroke-width="2"
            />
            <polygon
              points="235.03 328.31 221.06 328.31 214.76 286.72 228.72 286.72 235.03 328.31"
              fill="#a67ee5"
            />
            <polygon
              points="235.03 328.31 221.06 328.31 214.76 286.72 228.72 286.72 235.03 328.31"
              fill="none"
              stroke="#fff"
              stroke-miterlimit="10"
              stroke-width="2"
            />
            <path
              d="M281.33,272.45H225.44a5.59,5.59,0,0,1-5.53-4.77l-10.86-72.24a17.71,17.71,0,0,0-12.49-31.31H141.48L141.16,267l15.77,23.35,47.19,8.39a12.3,12.3,0,0,0,4.22.75h73a13.53,13.53,0,0,0,0-27.06"
              fill="#a67ee5"
            />
            <path
              d="M281.33,272.45H225.44a5.59,5.59,0,0,1-5.53-4.77l-10.86-72.24a17.71,17.71,0,0,0-12.49-31.31H141.48L141.16,267l15.77,23.35,47.19,8.39a12.3,12.3,0,0,0,4.22.75h73A13.53,13.53,0,0,0,281.33,272.45Z"
              fill="none"
              stroke="#fff"
              stroke-miterlimit="10"
              stroke-width="2"
            />
            <path
              d="M162.42,267.69l-10.86-72.24a17.71,17.71,0,1,0-29-13.61,18,18,0,0,0,.79,5.25L138.65,289a12.36,12.36,0,0,0,12.21,10.54h73a13.53,13.53,0,0,0,0-27.05H167.95a5.62,5.62,0,0,1-5.53-4.78"
              fill="#a67ee5"
            />
            <path
              d="M162.42,267.69l-10.86-72.24a17.71,17.71,0,1,0-29-13.61,18,18,0,0,0,.79,5.25L138.65,289a12.36,12.36,0,0,0,12.21,10.54h73a13.53,13.53,0,0,0,0-27.05H167.95A5.62,5.62,0,0,1,162.42,267.69Z"
              fill="none"
              stroke="#fff"
              stroke-miterlimit="10"
              stroke-width="2"
            />
            <path
              d="M206.26,259.82h-72l-2.13-14.19H200.6a9.92,9.92,0,0,1,9.9,9.93,4.26,4.26,0,0,1-4.25,4.25"
              fill="#a67ee5"
            />
            <path
              d="M206.26,259.82h-72l-2.13-14.19H200.6a9.92,9.92,0,0,1,9.9,9.93A4.26,4.26,0,0,1,206.26,259.82Z"
              fill="none"
              stroke="#fff"
              stroke-miterlimit="10"
              stroke-width="2"
            />
            <line
              x1="151.57"
              y1="195.44"
              x2="209.05"
              y2="195.44"
              fill="none"
              stroke="#fff"
              stroke-linecap="round"
              stroke-miterlimit="10"
              stroke-width="2"
            />
          </g>
          <g id="leaflets" opacity="0">
            <animate
              attributeName="opacity"
              begin="chairShowAnimation.end - 0.1s"
              dur="400ms"
              fill="freeze"
              from="0"
              to="1"
            />
            <animateTransform
              attributeName="transform"
              begin="chairShowAnimation.end - 0.15s"
              dur="3s"
              fill="freeze"
              repeatCount="indefinite"
              type="rotate"
              values="0 100 360; 4 100 360; 0 100 360"
            />
            <path
              d="M79.18,194A131,131,0,0,1,94.77,220.9a255,255,0,0,1-20.08-23.55,259,259,0,0,1-17.07-25.88A131.72,131.72,0,0,1,79.18,194"
              fill="#36e69a"
            />
            <path
              d="M80.94,214.39a127.19,127.19,0,0,1,22.8,20.49A242.09,242.09,0,0,1,77.9,219.17a235.86,235.86,0,0,1-23.42-18.7,119.82,119.82,0,0,1,26.46,13.92"
              fill="#36e69a"
            />
            <path
              d="M93.66,205.48a258.38,258.38,0,0,0,10.08,29.39,125.63,125.63,0,0,0-4.5-30.52,135.9,135.9,0,0,0-12.06-29.44,260.33,260.33,0,0,0,6.47,30.57"
              fill="#36e69a"
            />
            <path
              d="M107.32,213.52a250.14,250.14,0,0,0,2.06,30.67,119.93,119.93,0,0,0,3.76-30.05,131.24,131.24,0,0,0-4-31.36,238.1,238.1,0,0,0-1.87,30.74"
              fill="#25b774"
            />
            <path
              d="M83.08,229.56a121.93,121.93,0,0,1,26.29,14.64A225.91,225.91,0,0,1,81.21,235a228.11,228.11,0,0,1-26.37-12.69,113.61,113.61,0,0,1,28.25,7.29"
              fill="#25b774"
            />
            <path
              d="M88.06,243.83A118.11,118.11,0,0,1,115.62,255a211,211,0,0,1-28.78-5.6,220.87,220.87,0,0,1-27.42-9.33,114,114,0,0,1,28.65,3.73"
              fill="#25b774"
            />
            <path
              d="M118.71,224.79a238,238,0,0,0-3.1,30.25,117.11,117.11,0,0,0,8.82-28.54,127.44,127.44,0,0,0,1.42-31.19,213.92,213.92,0,0,0-7.15,29.48"
              fill="#25b774"
            />
            <path
              d="M98.86,262a118.24,118.24,0,0,1,27.07,12.34,212.3,212.3,0,0,1-28.53-6.79,220.78,220.78,0,0,1-27-10.45A114.06,114.06,0,0,1,98.86,262"
              fill="#068e4d"
            />
            <path
              d="M130.27,244.29a236.56,236.56,0,0,0-4.34,30.1,116.94,116.94,0,0,0,10-28.16,127.42,127.42,0,0,0,2.71-31.1,214.43,214.43,0,0,0-8.36,29.16"
              fill="#068e4d"
            />
            <path
              d="M108.9,280.69a118.21,118.21,0,0,1,26.54,13.47,213.62,213.62,0,0,1-28.23-8,221.65,221.65,0,0,1-26.55-11.57,113.82,113.82,0,0,1,28.24,6.08"
              fill="#068e4d"
            />
            <path
              d="M141,264.26a236.09,236.09,0,0,0-5.58,29.9,117.46,117.46,0,0,0,11.15-27.73,127.2,127.2,0,0,0,4-31A214.24,214.24,0,0,0,141,264.26"
              fill="#068e4d"
            />
            <path
              d="M92.62,217.67A529.26,529.26,0,0,1,149.48,328"
              fill="none"
              stroke="#36e69a"
              stroke-linecap="round"
              stroke-linejoin="round"
              stroke-width="2"
            />
          </g>
        </g>

        <g id="firstPrizeClouds">
          <defs>
            <clipPath id="window">
              <path
                d="M275,225.43H257.87a17.6,17.6,0,0,1-17.52-17.58V170a17.6,17.6,0,0,1,17.52-17.58H275A17.6,17.6,0,0,1,292.51,170v37.83A17.61,17.61,0,0,1,275,225.43Z"
              />
            </clipPath>
          </defs>
          <g clip-path="url(#window)">
            <g transform="scale(0.7) translate(520 260)">
              <g>
                <animateTransform
                  attributeName="transform"
                  begin="airshipBannerWindowShowAnimation.end"
                  dur="2.5s"
                  from="100 0"
                  repeatCount="indefinite"
                  to="-250 0"
                  type="translate"
                />
                <line
                  x1="28.18"
                  y1="38.34"
                  x2="91.09"
                  y2="38.34"
                  fill="none"
                  stroke="#fff"
                  stroke-linecap="round"
                  stroke-miterlimit="10"
                  stroke-width="2"
                />
                <path
                  d="M41.77,97.54H77.06a12.4,12.4,0,1,1,24.8,0h17.93"
                  transform="translate(-40.77 -69.46)"
                  fill="none"
                  stroke="#fff"
                  stroke-linecap="round"
                  stroke-miterlimit="10"
                  stroke-width="2"
                />
                <line
                  x1="218.19"
                  y1="23.72"
                  x2="257.97"
                  y2="23.72"
                  fill="none"
                  stroke="#fff"
                  stroke-linecap="round"
                  stroke-miterlimit="10"
                  stroke-width="2"
                />
              </g>
              <g>
                <animateTransform
                  attributeName="transform"
                  begin="airshipBannerWindowShowAnimation.end - 1s"
                  dur="2.5s"
                  from="150 0"
                  repeatCount="indefinite"
                  to="-250 0"
                  type="translate"
                />
                <path
                  d="M278.75,82.91H251.39a12.4,12.4,0,1,0-24.8,0H208.65"
                  transform="translate(-40.77 -69.46)"
                  fill="none"
                  stroke="#fff"
                  stroke-linecap="round"
                  stroke-miterlimit="10"
                  stroke-width="2"
                />
                <line
                  x1="246.24"
                  y1="13.45"
                  x2="268.43"
                  y2="13.45"
                  fill="none"
                  stroke="#fff"
                  stroke-linecap="round"
                  stroke-miterlimit="10"
                  stroke-width="2"
                />
              </g>
            </g>
          </g>
        </g>
      </g>
    </g>

    <!-- Secondary prize -->

    <!-- <defs> -->
    <path
      id="theMotionPath"
      d="M179,111c24.19-9.24,29.8-15.84,29.42-20.44C207.18,75.43,138.73,51.78,96,84c-2.93,2.21-31.66,24.52-29,54,3.54,39.18,59.83,61.15,75.7,67.35,53.65,20.94,94.43,8.79,101.78,27.18,2.89,7.25.78,19.69-21.48,42.47"
      fill="none"
      stroke="#000"
      stroke-miterlimit="10"
    />
    <!-- </defs> -->

    <g id="secondaryPrize" opacity="0">
      <animate
        attributeName="opacity"
        begin="firstPrizeMoveAnimation.end - 0.6s"
        dur="600ms"
        fill="freeze"
        from="0"
        id="secondaryPrizeShowAnimation"
        to="1"
      />

      <g id="socondaryLayout">
        <line
          x1="41.13"
          y1="329"
          x2="319.13"
          y2="329"
          fill="none"
          stroke="#fff"
          stroke-width="2"
        >
          <animate
            attributeName="x1"
            attributeType="XML"
            begin="secondaryPrizeShowAnimation.end - 0.1s"
            dur="300ms"
            fill="freeze"
            values="41.13; 120.13"
          />
        </line>
      </g>

      <g id="highLeaflet">
        <g>
          <animateTransform
            attributeName="transform"
            dur="2s"
            fill="freeze"
            repeatCount="indefinite"
            type="rotate"
            values="0 260 260; 4 260 260; -4 260 260; 0 260 260"
          />
          <path
            d="M263.47,206.82a2,2,0,0,1,3.15,2c-1,7-2.07,20.33,4.85,19.4,4.94-.66-16.65-31.53,19.32-38.16a2,2,0,0,1,2.18,2.89c-1.32,2.74-2.83,6.61-2.73,9.9a2,2,0,0,0,3.71,1c4.1-6.15,15.1-17.86,36.59-10.7a2,2,0,0,1,1.35,1.54c0.93,4.8,4.13,23.24-.29,28.72-5.09,6.31-15,4.14-16.18,10.25-1.3,6.91,7.51,4.82,13.42-.22a2,2,0,0,1,3.32,1.64c-0.25,5.45-2.18,14-11.12,18.69-13.78,7.21-23.48-7-25.19-3.88-2.59,4.66,7.94,8.47,13.78,10.18a2,2,0,0,1,.61,3.59c-10.52,7.74-29.13,10.28-37-5.41-8.3-16.59-12.93-12.49-18.19-20.38-5.71-8.57-4.33-22.54,8.38-31.05m29.4,32.47c0.5,2.73,5.2,3.51,8.35,2.94s8.47-3.83,8-6.56-6.62-3.9-9.78-3.33-7.05,4.22-6.55,6.95"
            fill="#e81a5a"
          />
        </g>
        <path
          d="M263,327.88s-4.91-70.27,5.54-80.72"
          fill="none"
          stroke="#e81a5a"
          stroke-miterlimit="10"
          stroke-width="2"
        />
      </g>

      <g id="secondaryClouds">
        <animate
          attributeName="opacity"
          begin="parachuteShowAnimation.end + 600ms"
          dur="350ms"
          fill="freeze"
          from="1"
          to="0"
        />
        <animateTransform
          attributeName="transform"
          begin="parachuteShowAnimation.end + 600ms"
          dur="300ms"
          fill="freeze"
          to="0 -120"
          type="translate"
        />
        <g>
          <path
            d="M85.22,67.45H57.86a12.4,12.4,0,1,0-24.8,0H15.13"
            fill="none"
            stroke="#fff"
            stroke-linecap="round"
            stroke-miterlimit="10"
            stroke-width="2"
          />
          <line
            x1="93.48"
            y1="67.45"
            x2="115.68"
            y2="67.45"
            fill="none"
            stroke="#fff"
            stroke-linecap="round"
            stroke-miterlimit="10"
            stroke-width="2"
          />
          <line
            x1="65.43"
            y1="77.72"
            x2="105.21"
            y2="77.72"
            fill="none"
            stroke="#fff"
            stroke-linecap="round"
            stroke-miterlimit="10"
            stroke-width="2"
          />
        </g>
        <g>
          <line
            x1="272.13"
            y1="145.27"
            x2="311.9"
            y2="145.27"
            fill="none"
            stroke="#fff"
            stroke-linecap="round"
            stroke-miterlimit="10"
            stroke-width="2"
          />
          <line
            x1="300.17"
            y1="135"
            x2="322.37"
            y2="135"
            fill="none"
            stroke="#fff"
            stroke-linecap="round"
            stroke-miterlimit="10"
            stroke-width="2"
          />
        </g>
      </g>

      <g id="parachute" opacity="0" transform="scale(0.2) translate(800, 200)">
        <animate
          attributeName="opacity"
          begin="secondaryPrizeShowAnimation.end - 0.1s"
          dur="300ms"
          fill="freeze"
          id="parachuteShowAnimation"
          to="1"
        />
        <animateMotion
          path="M179,111c24.19-9.24,29.8-15.84,29.42-20.44C207.18,75.43,138.73,51.78,96,84c-2.93,2.21-31.66,24.52-29,54,3.54,39.18,59.83,61.15,75.7,67.35,53.65,20.94,94.43,8.79,101.78,27.18,2.89,7.25.78,19.69-21.48,42.47"
          begin="parachuteShowAnimation.end + 0.2s"
          dur="3s"
          fill="freeze"
          repeatCount="1"
        />
        <animateTransform
          additive="sum"
          attributeName="transform"
          begin="parachuteShowAnimation.end + 0.2s"
          dur="3s"
          fill="freeze"
          to="1"
          type="scale"
        />
        <g transform="rotate(0)">
          <animateTransform
            additive="sum"
            attributeName="transform"
            begin="parachuteShowAnimation.end + 0.2s"
            dur="3s"
            fill="freeze"
            type="rotate"
            values="-30 180 180; 20 180 180; 15 180 180; -7 180 180; 0 180 180"
          />
          <g>
            <path
              d="M251.89,328.88a3.54,3.54,0,0,0,3.53-3.53v-5.07a3.53,3.53,0,1,0-7.06,0v5.07a3.55,3.55,0,0,0,3.53,3.53"
              fill="#a67ee5"
            />
            <path
              d="M251.89,328.88a3.54,3.54,0,0,0,3.53-3.53v-5.07a3.53,3.53,0,1,0-7.06,0v5.07A3.55,3.55,0,0,0,251.89,328.88Z"
              fill="none"
              stroke="#fff"
              stroke-miterlimit="10"
              stroke-width="2"
            />
            <path
              d="M176.35,328.88a3.54,3.54,0,0,0,3.53-3.53v-5.07a3.53,3.53,0,1,0-7.06,0v5.07a3.54,3.54,0,0,0,3.53,3.53"
              fill="#a67ee5"
            />
            <path
              d="M176.35,328.88a3.54,3.54,0,0,0,3.53-3.53v-5.07a3.53,3.53,0,1,0-7.06,0v5.07A3.54,3.54,0,0,0,176.35,328.88Z"
              fill="none"
              stroke="#fff"
              stroke-miterlimit="10"
              stroke-width="2"
            />
            <path
              d="M170.92,320.29h74.5a11.38,11.38,0,0,0,11.35-11.35V242.86a11.38,11.38,0,0,0-11.35-11.35h-74.5a11.38,11.38,0,0,0-11.35,11.35v66.08a11.38,11.38,0,0,0,11.35,11.35"
              fill="#a67ee5"
            />
            <rect
              x="159.57"
              y="231.51"
              width="97.2"
              height="88.78"
              rx="11.35"
              ry="11.35"
              fill="none"
              stroke="#fff"
              stroke-miterlimit="10"
              stroke-width="2"
            />
            <path
              d="M199.26,219.15h32.4a4.09,4.09,0,0,1,4.08,4.08v16a1.19,1.19,0,0,1-1.19,1.19h-2.7a1.19,1.19,0,0,1-1.19-1.19V224.86a1.27,1.27,0,0,0-1.27-1.27H201.53a1.27,1.27,0,0,0-1.27,1.27v14.38a1.19,1.19,0,0,1-1.19,1.19h-2.7a1.19,1.19,0,0,1-1.19-1.19v-16a4.1,4.1,0,0,1,4.09-4.08"
              fill="#a67ee5"
            />
            <path
              d="M199.26,219.15h32.4a4.09,4.09,0,0,1,4.08,4.08v16a1.19,1.19,0,0,1-1.19,1.19h-2.7a1.19,1.19,0,0,1-1.19-1.19V224.86a1.27,1.27,0,0,0-1.27-1.27H201.53a1.27,1.27,0,0,0-1.27,1.27v14.38a1.19,1.19,0,0,1-1.19,1.19h-2.7a1.19,1.19,0,0,1-1.19-1.19v-16A4.1,4.1,0,0,1,199.26,219.15Z"
              fill="none"
              stroke="#fff"
              stroke-miterlimit="10"
              stroke-width="2"
            />
            <path
              d="M185.34,320.29h74.5a11.38,11.38,0,0,0,11.35-11.35V242.86a11.38,11.38,0,0,0-11.35-11.35h-74.5A11.38,11.38,0,0,0,174,242.86v66.08a11.39,11.39,0,0,0,11.35,11.35"
              fill="#a67ee5"
            />
            <path
              d="M185.34,320.29h74.5a11.38,11.38,0,0,0,11.35-11.35V242.86a11.38,11.38,0,0,0-11.35-11.35h-74.5A11.38,11.38,0,0,0,174,242.86v66.08A11.39,11.39,0,0,0,185.34,320.29Z"
              fill="none"
              stroke="#fff"
              stroke-miterlimit="10"
              stroke-width="2"
            />
            <line
              x1="254.22"
              y1="252.43"
              x2="190.97"
              y2="252.43"
              fill="none"
              stroke="#fff"
              stroke-linecap="round"
              stroke-miterlimit="10"
              stroke-width="2"
            />
            <line
              x1="254.22"
              y1="275.9"
              x2="190.97"
              y2="275.9"
              fill="none"
              stroke="#fff"
              stroke-linecap="round"
              stroke-miterlimit="10"
              stroke-width="2"
            />
            <line
              x1="254.22"
              y1="299.38"
              x2="190.97"
              y2="299.38"
              fill="none"
              stroke="#fff"
              stroke-linecap="round"
              stroke-miterlimit="10"
              stroke-width="2"
            />
            <path
              d="M168.12,253.68h0.67v44.46h-0.67a3.53,3.53,0,0,1-3.52-3.51V257.2a3.52,3.52,0,0,1,3.52-3.52"
              fill="#a67ee5"
            />
            <path
              d="M168.12,253.68h0.67v44.46h-0.67a3.53,3.53,0,0,1-3.52-3.51V257.2A3.52,3.52,0,0,1,168.12,253.68Z"
              fill="none"
              stroke="#fff"
              stroke-miterlimit="10"
              stroke-width="2"
            />
          </g>
          <g>
            <line
              x1="215.46"
              y1="218.86"
              x2="159.87"
              y2="139.03"
              fill="none"
              stroke="#fff"
              stroke-linecap="round"
              stroke-linejoin="round"
              stroke-width="2"
            />
            <line
              x1="215.46"
              y1="218.86"
              x2="196.93"
              y2="139.03"
              fill="none"
              stroke="#fff"
              stroke-linecap="round"
              stroke-linejoin="round"
              stroke-width="2"
            />
            <line
              x1="233.99"
              y1="139.03"
              x2="215.46"
              y2="218.86"
              fill="none"
              stroke="#fff"
              stroke-linecap="round"
              stroke-linejoin="round"
              stroke-width="2"
            />
            <line
              x1="271.04"
              y1="139.03"
              x2="215.46"
              y2="218.86"
              fill="none"
              stroke="#fff"
              stroke-linecap="round"
              stroke-linejoin="round"
              stroke-width="2"
            />
          </g>
          <g>
            <path
              d="M215.46,83.44A55.58,55.58,0,0,1,271,139c0-6.76-8.3-12.25-18.53-12.25s-18.31,5.35-18.52,12c0,0.08,0,.17,0,0.26,0-6.76-8.3-12.25-18.53-12.25s-18.54,5.49-18.54,12.25c0-.09,0-0.17,0-0.26-0.22-6.64-8.42-12-18.52-12s-18.52,5.49-18.52,12.25a55.58,55.58,0,0,1,55.59-55.59m0-1.66A57.31,57.31,0,0,0,158.22,139a1.66,1.66,0,1,0,3.32,0c0-5.84,7.57-10.59,16.87-10.59,9.11,0,16.68,4.66,16.86,10.38V139a1.66,1.66,0,0,0,3.32,0c0-5.84,7.57-10.59,16.87-10.59s16.87,4.75,16.87,10.59a1.66,1.66,0,0,0,3.32,0v-0.21c0.18-5.73,7.74-10.39,16.86-10.39,9.3,0,16.87,4.75,16.87,10.59a1.66,1.66,0,1,0,3.32,0,57.3,57.3,0,0,0-57.23-57.25"
              fill="#fff"
            />
            <path
              d="M215.46,83.44c9.92,0,18,20.9,18.54,55.33,0.21-6.65,8.41-12,18.52-12S271,132.27,271,139a55.59,55.59,0,0,0-55.59-55.59"
              fill="#e81a5a"
            />
            <path
              d="M215.45,83.44A55.58,55.58,0,0,0,159.87,139c0-6.76,8.3-12.25,18.52-12.25s18.3,5.35,18.52,12c0.52-34.43,8.61-55.32,18.53-55.32"
              fill="#fe6183"
            />
            <path
              d="M215.46,83.44c-9.93,0-18,20.9-18.54,55.32,0,0.09,0,.17,0,0.26,0-6.76,8.3-12.25,18.53-12.25S234,132.27,234,139c0-.09,0-0.17,0-0.26-0.51-34.43-8.6-55.33-18.52-55.33"
              fill="#f7396b"
            />
          </g>
        </g>
      </g>

      <g id="secondaryMainCloud">
        <animate
          attributeName="opacity"
          begin="parachuteShowAnimation.end + 600ms"
          dur="350ms"
          fill="freeze"
          from="1"
          to="0"
        />
        <animateTransform
          attributeName="transform"
          begin="parachuteShowAnimation.end + 600ms"
          dur="300ms"
          fill="freeze"
          to="0 -120"
          type="translate"
        />
        <path
          d="M235.77,119H216.32a35.49,35.49,0,0,0-68-13.69A26.34,26.34,0,0,0,135.43,102a26.72,26.72,0,0,0-24.8,17H95.48a10.49,10.49,0,0,0,0,21h140.3a10.49,10.49,0,0,0,0-21"
          fill="#fff"
        />
      </g>

      <g id="secondarySmallLeaflet">
        <animateTransform
          attributeName="transform"
          dur="2s"
          fill="freeze"
          repeatCount="indefinite"
          type="rotate"
          values="0 260 330; 3 260 330; -1 260 330; 0 260 330"
        />
        <animateTransform
          attributeName="transform"
          begin="parachuteEndAnimation.end + 650ms"
          dur="1.5s"
          fill="freeze"
          repeatCount="3"
          type="rotate"
          values="0 260 330; 6 260 330; -3 260 330; 0 260 330"
        />
        <path
          d="M322.92,283.4a2.14,2.14,0,0,1,.55,2.17c-1.06,3.43-4.58,12.85-12.1,16.34-5.13,2.38-8.33-2.7-10.92.77s2.1,5,6.92,4.31a2.16,2.16,0,0,1,2.14,3.34A14.34,14.34,0,0,1,297.78,317c-10.84.27-12.55-11.58-14.57-10.19-2.72,1.89,1.27,6.55,4.39,9.57a2.16,2.16,0,0,1-1.3,3.71c-8.76.84-19.72-3.51-19.8-15-0.08-12.94-4.25-11.8-5.11-18.35-0.91-6.88,3.88-14.88,13.74-16.69a2.16,2.16,0,0,1,2.31,3.11c-2.41,4.73-6,12.6-2.82,12.56,3.46,0-1.58-22.58,28.43-15.26a2.16,2.16,0,0,1,1.09,3.54l-0.1.11a2.16,2.16,0,0,0,2.41,3.45c3.66-1.52,9.16-1.27,16.47,5.84"
          fill="#fe6183"
        />
        <path
          d="M245.13,327.88s3.48-30.11,21.7-30.11"
          fill="none"
          stroke="#fe6183"
          stroke-miterlimit="10"
          stroke-width="2"
        />
      </g>
    </g>
  </g>
</svg>
